<?xml version="1.0" encoding="UTF-8" standalone="no"?>
<!-- Created with Inkscape (http://www.inkscape.org/) -->

<svg
        xmlns:inkscape="http://www.inkscape.org/namespaces/inkscape"
        xmlns:sodipodi="http://sodipodi.sourceforge.net/DTD/sodipodi-0.dtd"
        version="1.1"
        id="svg1"
        width="9.1755371"
        height="10.766663"
        viewBox="0 0 9.1755374 10.766663"
        sodipodi:docname="gazebo-karte.pdf"
        xmlns="http://www.w3.org/2000/svg"
>
    <defs
            id="defs1"/>
    <sodipodi:namedview
            id="namedview1"
            pagecolor="#505050"
            bordercolor="#eeeeee"
            borderopacity="1"
            inkscape:showpageshadow="0"
            inkscape:pageopacity="0"
            inkscape:pagecheckerboard="0"
            inkscape:deskcolor="#505050">
        <inkscape:page
                x="-1.3976349e-06"
                y="-2.2894175e-05"
                width="9.1755371"
                height="10.766663"
                id="page2"
                margin="0"
                bleed="0"/>
    </sodipodi:namedview>
    <g
            id="g1"
            inkscape:groupmode="layer"
            inkscape:label="1"
            transform="translate(-874.38533,-557.41199)">
        <g
                id="g186">
            <path
                    id="path127"
                    d="m 657.648,164.67 c -0.11,0.017 -0.106,0.024 0.242,0.405 0.194,0.214 0.448,0.489 0.564,0.612 0.116,0.123 0.211,0.243 0.212,0.268 10e-4,0.049 -0.378,0.38 -0.43,0.375 -0.018,-0.002 -0.122,-0.106 -0.231,-0.231 -0.428,-0.492 -0.911,-0.987 -0.936,-0.961 -0.064,0.064 -0.064,1.299 0,1.7 0.133,0.835 0.332,1.268 0.773,1.675 0.656,0.606 1.501,1.046 2.517,1.309 0.555,0.144 1.188,0.252 1.215,0.208 0.049,-0.08 0.085,-0.969 0.058,-1.426 -0.081,-1.359 -0.421,-2.38 -1.041,-3.124 -0.113,-0.136 -0.18,-0.233 -0.149,-0.215 0.04,0.023 0.045,0.02 0.017,-0.009 -0.087,-0.092 -0.622,-0.333 -0.946,-0.427 -0.542,-0.156 -1.398,-0.229 -1.865,-0.159 z m 0.314,4.202 c 0.04,0.044 0.082,0.08 0.093,0.08 0.011,0 -0.013,-0.036 -0.053,-0.08 -0.04,-0.045 -0.082,-0.081 -0.093,-0.081 -0.011,0 0.012,0.036 0.053,0.081 z m 0.382,0.378 c 0,0.008 0.032,0.04 0.071,0.07 0.064,0.05 0.065,0.049 0.015,-0.015 -0.053,-0.067 -0.086,-0.089 -0.086,-0.055 z"
                    style="fill:#9fd622;fill-opacity:1;fill-rule:nonzero;stroke:none"
                    transform="matrix(1.3333333,0,0,-1.3333333,0,785.92)"/>
            <path
                    id="path128"
                    d="m 655.789,163.771 0.775,0.77 -0.057,0.322 c -0.098,0.564 -0.116,1.469 -0.039,1.989 0.196,1.325 0.831,2.386 1.902,3.176 0.974,0.718 2.404,1.223 3.755,1.325 l 0.359,0.028 0.044,-0.258 c 0.157,-0.922 0.189,-2.248 0.073,-3.058 -0.247,-1.719 -1.02,-2.935 -2.266,-3.559 -0.347,-0.174 -0.861,-0.327 -1.312,-0.39 -0.387,-0.054 -1.431,-0.057 -1.787,-0.004 l -0.241,0.036 -0.859,-0.842 z m 3.019,0.915 c 0.991,0.122 1.829,0.549 2.331,1.189 0.39,0.496 0.707,1.27 0.856,2.09 0.059,0.324 0.073,0.6 0.07,1.41 -0.001,0.554 -0.02,1.089 -0.04,1.189 -0.038,0.181 -0.038,0.181 -0.197,0.168 -0.559,-0.045 -1.52,-0.322 -2.163,-0.623 -1.521,-0.711 -2.396,-1.839 -2.613,-3.367 -0.048,-0.34 -0.036,-1.552 0.017,-1.604 0.026,-0.026 0.51,0.471 0.936,0.961 0.109,0.125 0.213,0.229 0.231,0.231 0.052,0.005 0.431,-0.326 0.43,-0.375 -0.001,-0.025 -0.096,-0.145 -0.212,-0.268 -0.116,-0.123 -0.37,-0.398 -0.564,-0.612 -0.348,-0.381 -0.352,-0.388 -0.242,-0.405 0.232,-0.035 0.81,-0.027 1.16,0.016 z"
                    style="fill:#1b1716;fill-opacity:1;fill-rule:nonzero;stroke:none"
                    transform="matrix(1.3333333,0,0,-1.3333333,0,785.92)"/>
        </g>
    </g>
</svg>
