<?xml version="1.0" encoding="UTF-8" standalone="no"?>
<!-- Created with Inkscape (http://www.inkscape.org/) -->

<svg
        xmlns:inkscape="http://www.inkscape.org/namespaces/inkscape"
        xmlns:sodipodi="http://sodipodi.sourceforge.net/DTD/sodipodi-0.dtd"
        version="1.1"
        id="svg1"
        width="275.29065"
        height="235.68826"
        viewBox="0 0 275.29066 235.68826"
        sodipodi:docname="gazebo-karte.pdf"
        xmlns="http://www.w3.org/2000/svg"
>
    <defs
            id="defs1"/>
    <sodipodi:namedview
            id="namedview1"
            pagecolor="#505050"
            bordercolor="#eeeeee"
            borderopacity="1"
            inkscape:showpageshadow="0"
            inkscape:pageopacity="0"
            inkscape:pagecheckerboard="0"
            inkscape:deskcolor="#505050">
        <inkscape:page
                x="-1.2515775e-06"
                y="2.2393106e-06"
                width="275.29065"
                height="235.68826"
                id="page2"
                margin="0"
                bleed="0"/>
    </sodipodi:namedview>
    <g
            id="g1"
            inkscape:groupmode="layer"
            inkscape:label="1"
            transform="translate(-1940.6978,-255.36908)">
        <g
                id="layer-oc2"
                inkscape:groupmode="layer"
                inkscape:label="g842">
            <g
                    id="g182">
                <path
                        id="path172"
                        d="m 680.193,221.351 c -53.885,4.249 -98.954,62.916 -74.996,119.881 9.053,20.434 37.726,44.567 50.598,49.524 23.751,9.147 72.69,14.175 94.377,-14.577 1.631,-2.163 2.548,-3.685 2.821,-4.231 0.322,-0.639 0.207,-0.488 -0.269,-1.009 -1.469,0.066 -4.771,5.431 -5.908,6.37 -4.046,3.343 -8.848,11.125 -34.787,15.62 -15.825,2.04 -42.962,-5.782 -47.671,-8.1 -35.29,-17.371 -63.544,-53.968 -54.093,-94.812 9.544,-46.473 65.369,-66.985 99.831,-58.93 18.723,7.624 79.963,43.514 26.657,42.909 -10.591,2.997 -24.428,31.83 -24.179,34.151 1.808,11.577 11.533,-29.707 35.472,-30.866 34.599,-1.223 43.295,10.961 53.21,38.805 9.797,20.338 0.103,-32.331 -21.933,-40.571 -5.906,-1.44 -14.673,-27.453 -61.953,-49.445 -8.963,-4.17 -27.61,-5.477 -37.177,-4.719 z m 47.613,81.499 c -0.006,0.381 -0.189,0.995 0.264,1.107 28.339,6.994 54.015,10.833 63.612,9.768 0.069,-0.008 0.03,-0.483 0.017,-0.709 -0.528,-0.127 -1.056,-0.254 -1.585,-0.379 -20.418,-4.835 -41.55,-7.587 -62.308,-9.787 z"
                        style="fill:#ffffff;fill-opacity:1;fill-rule:evenodd;stroke:none"
                        transform="matrix(1.3333333,0,0,-1.3333333,1142.56,785.92)"/>
                <path
                        id="path173"
                        d="m 793.65,372.807 c -13.416,-8.298 -32.64,-4.389 -42.104,8.12 7.971,12.524 25.974,6.503 36.311,0.398 2.875,-1.988 5.372,-4.928 5.793,-8.518 z m -3.949,3.906 c -7.52,8.185 -28.743,14.484 -33.643,3.499 6.345,-10.2 20.923,-10.106 31.495,-8.562 2.24,0.474 3.587,3.068 2.148,5.063 z"
                        style="fill:#ffffff;fill-opacity:1;fill-rule:evenodd;stroke:none"
                        transform="matrix(1.3333333,0,0,-1.3333333,1142.56,785.92)"/>
                <path
                        id="path174"
                        d="m 757.748,342.889 c -4.975,2.5 -9.054,9.481 -10.364,16.188 -1.31,6.706 0.149,13.137 6.247,14.534 9.413,-5.793 11.763,-22.96 4.117,-30.722 z m 1.452,3.999 c 2.717,3.523 1.806,11.763 -0.591,17.535 -2.395,5.771 -6.275,9.074 -9.496,2.721 -1.229,-6.477 0.701,-20.932 10.087,-20.256 z"
                        style="fill:#ffffff;fill-opacity:1;fill-rule:evenodd;stroke:none"
                        transform="matrix(1.3333333,0,0,-1.3333333,1142.56,785.92)"/>
                <path
                        id="path175"
                        d="m 726.474,348.417 c -7.679,9.518 -6.58,24.485 1.701,33.284 9.974,-2.599 8.099,-15.829 6.114,-23.507 -1.256,-4.011 -3.368,-8.601 -7.815,-9.777 z m 2.646,3.456 c 5.911,7.728 5.868,18.27 1.136,26.753 -8.161,-3.132 -7.741,-16.01 -5.658,-24.172 0.45,-1.889 2.441,-4.742 4.522,-2.581 z"
                        style="fill:#ffffff;fill-opacity:1;fill-rule:evenodd;stroke:none"
                        transform="matrix(1.3333333,0,0,-1.3333333,1142.56,785.92)"/>
                <path
                        id="path176"
                        d="m 734.549,389.248 0.95,-1.97 c -3.267,-1.454 -3.854,-4.902 -3.533,-7.584 l -2.245,-0.247 c -0.418,3.499 0.565,7.903 4.828,9.801 z"
                        style="fill:#ffffff;fill-opacity:1;fill-rule:evenodd;stroke:none"
                        transform="matrix(1.3333333,0,0,-1.3333333,1142.56,785.92)"/>
                <path
                        id="path177"
                        d="m 754.343,382.568 0.756,-1.473 c -2.837,-1.232 -4.624,-3.448 -9.315,-2.589 l -0.173,2.216 c 4.069,-0.745 6.27,0.777 8.732,1.846 z"
                        style="fill:#ffffff;fill-opacity:1;fill-rule:evenodd;stroke:none"
                        transform="matrix(1.3333333,0,0,-1.3333333,1142.56,785.92)"/>
            </g>
        </g>
    </g>
</svg>
